<svg width="125" height="109" viewBox="0 0 125 109" fill="none" xmlns="http://www.w3.org/2000/svg">
<mask id="path-1-inside-1_402_1659" fill="white">
<path fill-rule="evenodd" clip-rule="evenodd" d="M89.4901 44.6396H36.5467V80.9705C36.5462 81.0059 36.5459 81.0413 36.5459 81.0767C36.5459 88.6309 48.3977 94.7549 63.0176 94.7549C77.6376 94.7549 89.4893 88.6309 89.4893 81.0767C89.4893 81.0765 89.4893 81.0763 89.4893 81.0762H89.4901V44.6396Z"/>
</mask>
<path fill-rule="evenodd" clip-rule="evenodd" d="M89.4901 44.6396H36.5467V80.9705C36.5462 81.0059 36.5459 81.0413 36.5459 81.0767C36.5459 88.6309 48.3977 94.7549 63.0176 94.7549C77.6376 94.7549 89.4893 88.6309 89.4893 81.0767C89.4893 81.0765 89.4893 81.0763 89.4893 81.0762H89.4901V44.6396Z" fill="url(#paint0_radial_402_1659)"/>
<path d="M36.5467 44.6396V43.6396H35.5467V44.6396H36.5467ZM89.4901 44.6396H90.4901V43.6396H89.4901V44.6396ZM36.5467 80.9705L37.5466 80.9852L37.5467 80.9779V80.9705H36.5467ZM89.4893 81.0762V80.0762H88.4893V81.0762H89.4893ZM89.4901 81.0762V82.0762H90.4901V81.0762H89.4901ZM36.5467 45.6396H89.4901V43.6396H36.5467V45.6396ZM37.5467 80.9705V44.6396H35.5467V80.9705H37.5467ZM37.5459 81.0767C37.5459 81.0462 37.5461 81.0157 37.5466 80.9852L35.5468 80.9558C35.5462 80.9961 35.5459 81.0364 35.5459 81.0767H37.5459ZM63.0176 93.7549C55.8339 93.7549 49.3798 92.2482 44.7583 89.8602C40.086 87.446 37.5459 84.2882 37.5459 81.0767H35.5459C35.5459 85.4194 38.9317 89.1007 43.8402 91.637C48.7996 94.1996 55.5814 95.7549 63.0176 95.7549V93.7549ZM88.4893 81.0767C88.4893 84.2882 85.9493 87.446 81.2769 89.8602C76.6554 92.2482 70.2014 93.7549 63.0176 93.7549V95.7549C70.4538 95.7549 77.2356 94.1996 82.195 91.637C87.1035 89.1007 90.4893 85.4194 90.4893 81.0767H88.4893ZM88.4893 81.0762C88.4893 81.0762 88.4893 81.0762 88.4893 81.0762C88.4893 81.0762 88.4893 81.0762 88.4893 81.0762C88.4893 81.0762 88.4893 81.0762 88.4893 81.0762C88.4893 81.0762 88.4893 81.0762 88.4893 81.0762C88.4893 81.0762 88.4893 81.0762 88.4893 81.0762C88.4893 81.0762 88.4893 81.0762 88.4893 81.0762C88.4893 81.0762 88.4893 81.0762 88.4893 81.0762C88.4893 81.0762 88.4893 81.0762 88.4893 81.0762C88.4893 81.0762 88.4893 81.0762 88.4893 81.0762C88.4893 81.0762 88.4893 81.0762 88.4893 81.0762C88.4893 81.0762 88.4893 81.0762 88.4893 81.0762C88.4893 81.0762 88.4893 81.0762 88.4893 81.0762C88.4893 81.0762 88.4893 81.0762 88.4893 81.0762C88.4893 81.0762 88.4893 81.0762 88.4893 81.0762C88.4893 81.0762 88.4893 81.0762 88.4893 81.0762C88.4893 81.0762 88.4893 81.0762 88.4893 81.0762C88.4893 81.0762 88.4893 81.0762 88.4893 81.0762V81.0762V81.0762V81.0762V81.0763V81.0763V81.0763V81.0763V81.0763V81.0763V81.0763V81.0763V81.0763V81.0763V81.0763V81.0763V81.0763V81.0763V81.0763V81.0763V81.0763V81.0763V81.0763C88.4893 81.0763 88.4893 81.0763 88.4893 81.0763C88.4893 81.0763 88.4893 81.0763 88.4893 81.0763C88.4893 81.0763 88.4893 81.0763 88.4893 81.0763C88.4893 81.0763 88.4893 81.0763 88.4893 81.0763C88.4893 81.0763 88.4893 81.0763 88.4893 81.0763C88.4893 81.0763 88.4893 81.0763 88.4893 81.0763C88.4893 81.0763 88.4893 81.0763 88.4893 81.0763C88.4893 81.0763 88.4893 81.0763 88.4893 81.0764C88.4893 81.0764 88.4893 81.0764 88.4893 81.0764C88.4893 81.0764 88.4893 81.0764 88.4893 81.0764C88.4893 81.0764 88.4893 81.0764 88.4893 81.0764C88.4893 81.0764 88.4893 81.0764 88.4893 81.0764C88.4893 81.0764 88.4893 81.0764 88.4893 81.0764C88.4893 81.0764 88.4893 81.0764 88.4893 81.0764C88.4893 81.0764 88.4893 81.0764 88.4893 81.0764C88.4893 81.0764 88.4893 81.0764 88.4893 81.0764C88.4893 81.0764 88.4893 81.0764 88.4893 81.0764C88.4893 81.0764 88.4893 81.0764 88.4893 81.0764C88.4893 81.0764 88.4893 81.0764 88.4893 81.0764C88.4893 81.0764 88.4893 81.0764 88.4893 81.0764C88.4893 81.0764 88.4893 81.0764 88.4893 81.0764C88.4893 81.0764 88.4893 81.0764 88.4893 81.0764C88.4893 81.0764 88.4893 81.0764 88.4893 81.0764C88.4893 81.0764 88.4893 81.0764 88.4893 81.0764C88.4893 81.0764 88.4893 81.0764 88.4893 81.0764C88.4893 81.0764 88.4893 81.0764 88.4893 81.0764C88.4893 81.0764 88.4893 81.0764 88.4893 81.0764C88.4893 81.0764 88.4893 81.0764 88.4893 81.0764C88.4893 81.0764 88.4893 81.0764 88.4893 81.0764C88.4893 81.0764 88.4893 81.0764 88.4893 81.0764C88.4893 81.0764 88.4893 81.0764 88.4893 81.0764C88.4893 81.0764 88.4893 81.0764 88.4893 81.0764C88.4893 81.0764 88.4893 81.0764 88.4893 81.0764C88.4893 81.0765 88.4893 81.0765 88.4893 81.0765C88.4893 81.0765 88.4893 81.0765 88.4893 81.0765C88.4893 81.0765 88.4893 81.0765 88.4893 81.0765C88.4893 81.0765 88.4893 81.0765 88.4893 81.0765C88.4893 81.0765 88.4893 81.0765 88.4893 81.0765C88.4893 81.0765 88.4893 81.0765 88.4893 81.0765C88.4893 81.0765 88.4893 81.0765 88.4893 81.0765C88.4893 81.0765 88.4893 81.0765 88.4893 81.0765C88.4893 81.0765 88.4893 81.0765 88.4893 81.0765C88.4893 81.0765 88.4893 81.0765 88.4893 81.0765C88.4893 81.0765 88.4893 81.0765 88.4893 81.0765C88.4893 81.0765 88.4893 81.0765 88.4893 81.0765C88.4893 81.0765 88.4893 81.0765 88.4893 81.0765C88.4893 81.0765 88.4893 81.0765 88.4893 81.0765C88.4893 81.0765 88.4893 81.0765 88.4893 81.0765C88.4893 81.0765 88.4893 81.0765 88.4893 81.0765C88.4893 81.0765 88.4893 81.0765 88.4893 81.0765V81.0765V81.0765V81.0765V81.0765V81.0765V81.0765V81.0765V81.0765V81.0765V81.0765V81.0766V81.0766V81.0766V81.0766V81.0766V81.0766V81.0766V81.0766V81.0766V81.0766V81.0766V81.0766C88.4893 81.0766 88.4893 81.0766 88.4893 81.0766C88.4893 81.0766 88.4893 81.0766 88.4893 81.0766C88.4893 81.0766 88.4893 81.0766 88.4893 81.0766C88.4893 81.0766 88.4893 81.0766 88.4893 81.0766C88.4893 81.0766 88.4893 81.0766 88.4893 81.0766C88.4893 81.0766 88.4893 81.0766 88.4893 81.0766C88.4893 81.0766 88.4893 81.0766 88.4893 81.0766C88.4893 81.0766 88.4893 81.0766 88.4893 81.0766C88.4893 81.0766 88.4893 81.0766 88.4893 81.0766C88.4893 81.0766 88.4893 81.0766 88.4893 81.0766C88.4893 81.0766 88.4893 81.0766 88.4893 81.0766C88.4893 81.0766 88.4893 81.0766 88.4893 81.0766C88.4893 81.0766 88.4893 81.0766 88.4893 81.0766C88.4893 81.0766 88.4893 81.0766 88.4893 81.0766C88.4893 81.0767 88.4893 81.0767 88.4893 81.0767C88.4893 81.0767 88.4893 81.0767 88.4893 81.0767C88.4893 81.0767 88.4893 81.0767 88.4893 81.0767H90.4893C90.4893 81.0767 90.4893 81.0767 90.4893 81.0767C90.4893 81.0767 90.4893 81.0767 90.4893 81.0767C90.4893 81.0767 90.4893 81.0767 90.4893 81.0766C90.4893 81.0766 90.4893 81.0766 90.4893 81.0766C90.4893 81.0766 90.4893 81.0766 90.4893 81.0766C90.4893 81.0766 90.4893 81.0766 90.4893 81.0766C90.4893 81.0766 90.4893 81.0766 90.4893 81.0766C90.4893 81.0766 90.4893 81.0766 90.4893 81.0766C90.4893 81.0766 90.4893 81.0766 90.4893 81.0766C90.4893 81.0766 90.4893 81.0766 90.4893 81.0766C90.4893 81.0766 90.4893 81.0766 90.4893 81.0766C90.4893 81.0766 90.4893 81.0766 90.4893 81.0766C90.4893 81.0766 90.4893 81.0766 90.4893 81.0766C90.4893 81.0766 90.4893 81.0766 90.4893 81.0766C90.4893 81.0766 90.4893 81.0766 90.4893 81.0766C90.4893 81.0766 90.4893 81.0766 90.4893 81.0766C90.4893 81.0766 90.4893 81.0766 90.4893 81.0766V81.0766V81.0766V81.0766V81.0766V81.0766V81.0766V81.0766V81.0766V81.0766V81.0766V81.0766V81.0765V81.0765V81.0765V81.0765V81.0765V81.0765V81.0765V81.0765V81.0765V81.0765V81.0765C90.4893 81.0765 90.4893 81.0765 90.4893 81.0765C90.4893 81.0765 90.4893 81.0765 90.4893 81.0765C90.4893 81.0765 90.4893 81.0765 90.4893 81.0765C90.4893 81.0765 90.4893 81.0765 90.4893 81.0765C90.4893 81.0765 90.4893 81.0765 90.4893 81.0765C90.4893 81.0765 90.4893 81.0765 90.4893 81.0765C90.4893 81.0765 90.4893 81.0765 90.4893 81.0765C90.4893 81.0765 90.4893 81.0765 90.4893 81.0765C90.4893 81.0765 90.4893 81.0765 90.4893 81.0765C90.4893 81.0765 90.4893 81.0765 90.4893 81.0765C90.4893 81.0765 90.4893 81.0765 90.4893 81.0765C90.4893 81.0765 90.4893 81.0765 90.4893 81.0765C90.4893 81.0765 90.4893 81.0765 90.4893 81.0765C90.4893 81.0765 90.4893 81.0765 90.4893 81.0765C90.4893 81.0765 90.4893 81.0765 90.4893 81.0765C90.4893 81.0765 90.4893 81.0765 90.4893 81.0765C90.4893 81.0765 90.4893 81.0765 90.4893 81.0764C90.4893 81.0764 90.4893 81.0764 90.4893 81.0764C90.4893 81.0764 90.4893 81.0764 90.4893 81.0764C90.4893 81.0764 90.4893 81.0764 90.4893 81.0764C90.4893 81.0764 90.4893 81.0764 90.4893 81.0764C90.4893 81.0764 90.4893 81.0764 90.4893 81.0764C90.4893 81.0764 90.4893 81.0764 90.4893 81.0764C90.4893 81.0764 90.4893 81.0764 90.4893 81.0764C90.4893 81.0764 90.4893 81.0764 90.4893 81.0764C90.4893 81.0764 90.4893 81.0764 90.4893 81.0764C90.4893 81.0764 90.4893 81.0764 90.4893 81.0764C90.4893 81.0764 90.4893 81.0764 90.4893 81.0764C90.4893 81.0764 90.4893 81.0764 90.4893 81.0764C90.4893 81.0764 90.4893 81.0764 90.4893 81.0764C90.4893 81.0764 90.4893 81.0764 90.4893 81.0764C90.4893 81.0764 90.4893 81.0764 90.4893 81.0764C90.4893 81.0764 90.4893 81.0764 90.4893 81.0764C90.4893 81.0764 90.4893 81.0764 90.4893 81.0764C90.4893 81.0764 90.4893 81.0764 90.4893 81.0764C90.4893 81.0764 90.4893 81.0764 90.4893 81.0764C90.4893 81.0764 90.4893 81.0764 90.4893 81.0764C90.4893 81.0764 90.4893 81.0764 90.4893 81.0764C90.4893 81.0764 90.4893 81.0764 90.4893 81.0764C90.4893 81.0764 90.4893 81.0764 90.4893 81.0764C90.4893 81.0764 90.4893 81.0764 90.4893 81.0764C90.4893 81.0764 90.4893 81.0764 90.4893 81.0764C90.4893 81.0763 90.4893 81.0763 90.4893 81.0763C90.4893 81.0763 90.4893 81.0763 90.4893 81.0763C90.4893 81.0763 90.4893 81.0763 90.4893 81.0763C90.4893 81.0763 90.4893 81.0763 90.4893 81.0763C90.4893 81.0763 90.4893 81.0763 90.4893 81.0763C90.4893 81.0763 90.4893 81.0763 90.4893 81.0763C90.4893 81.0763 90.4893 81.0763 90.4893 81.0763C90.4893 81.0763 90.4893 81.0763 90.4893 81.0763V81.0763V81.0763V81.0763V81.0763V81.0763V81.0763V81.0763V81.0763V81.0763V81.0763V81.0763V81.0763V81.0763V81.0763V81.0763V81.0763V81.0763V81.0763V81.0762V81.0762V81.0762V81.0762C90.4893 81.0762 90.4893 81.0762 90.4893 81.0762C90.4893 81.0762 90.4893 81.0762 90.4893 81.0762C90.4893 81.0762 90.4893 81.0762 90.4893 81.0762C90.4893 81.0762 90.4893 81.0762 90.4893 81.0762C90.4893 81.0762 90.4893 81.0762 90.4893 81.0762C90.4893 81.0762 90.4893 81.0762 90.4893 81.0762C90.4893 81.0762 90.4893 81.0762 90.4893 81.0762C90.4893 81.0762 90.4893 81.0762 90.4893 81.0762C90.4893 81.0762 90.4893 81.0762 90.4893 81.0762C90.4893 81.0762 90.4893 81.0762 90.4893 81.0762C90.4893 81.0762 90.4893 81.0762 90.4893 81.0762C90.4893 81.0762 90.4893 81.0762 90.4893 81.0762C90.4893 81.0762 90.4893 81.0762 90.4893 81.0762C90.4893 81.0762 90.4893 81.0762 90.4893 81.0762C90.4893 81.0762 90.4893 81.0762 90.4893 81.0762C90.4893 81.0762 90.4893 81.0762 90.4893 81.0762C90.4893 81.0762 90.4893 81.0762 90.4893 81.0762H88.4893ZM89.4901 80.0762H89.4893V82.0762H89.4901V80.0762ZM88.4901 44.6396V81.0762H90.4901V44.6396H88.4901Z" fill="#713C9A" mask="url(#path-1-inside-1_402_1659)"/>
<path d="M62.7547 17.8857L1.98438 39.3002L62.7547 57.0389L121.721 39.3002L62.7547 17.8857Z" fill="#FF715D" stroke="#713C9A"/>
<path d="M77.2803 36.543L101.7 45.113V97.0806" stroke="#713C9A" stroke-width="1.42" stroke-miterlimit="10"/>
<path d="M47.8369 55.266V55.2246" stroke="#713C9A"/>
<path d="M98.8667 99.8756C100.43 101.419 102.964 101.419 104.528 99.8756C106.091 98.3322 106.091 95.8299 104.528 94.2866C102.964 92.7432 100.43 92.7432 98.8667 94.2866C97.3034 95.8299 97.3034 98.3322 98.8667 99.8756Z" fill="#FF715D" stroke="#713C9A"/>
<defs>
<radialGradient id="paint0_radial_402_1659" cx="0" cy="0" r="1" gradientUnits="userSpaceOnUse" gradientTransform="translate(90.7563 94.7549) rotate(-155.411) scale(71.7963 75.848)">
<stop offset="0.0208333" stop-color="#FF6F41"/>
<stop offset="0.494792" stop-color="#8A3AC8" stop-opacity="0.48"/>
<stop offset="1" stop-color="#432957" stop-opacity="0"/>
</radialGradient>
</defs>
</svg>
